<svg width="132" height="125" viewBox="0 0 132 125" fill="none" xmlns="http://www.w3.org/2000/svg">
<g clip-path="url(#clip0)">
<path d="M52.6462 124.667C45.5452 124.667 38.6444 123.309 32.1545 120.624C25.8859 118.032 20.2599 114.329 15.4241 109.618C10.5882 104.897 6.79543 99.4044 4.15101 93.2842C1.39069 86.9378 0 80.2107 0 73.2779C0 66.3451 1.39069 59.6078 4.14047 53.2716C6.79543 47.1514 10.5882 41.6587 15.4135 36.9374C20.2493 32.2161 25.8753 28.5131 32.144 25.9313C38.6339 23.2467 45.5347 21.8889 52.6356 21.8889C59.7366 21.8889 66.6269 23.2467 73.1273 25.9313C79.396 28.5234 85.0219 32.2264 89.8578 36.9374C94.6936 41.6587 98.4864 47.1514 101.141 53.2716C103.891 59.6181 105.282 66.3451 105.282 73.2779C105.282 80.2107 103.891 86.948 101.141 93.2842C98.4864 99.4044 94.6936 104.897 89.8578 109.618C85.0219 114.34 79.396 118.043 73.1273 120.624C66.6374 123.299 59.7471 124.667 52.6462 124.667ZM52.6462 37.2974C47.6629 37.2974 42.8376 38.2437 38.3073 40.1158C33.9245 41.9261 29.9842 44.5182 26.5917 47.8303C23.2098 51.1321 20.5443 54.9791 18.6901 59.2683C16.7726 63.7016 15.7928 68.4126 15.7928 73.2676C15.7928 78.1226 16.7621 82.8336 18.6901 87.2669C20.5443 91.5459 23.1993 95.3929 26.5917 98.705C29.9737 102.007 33.9245 104.609 38.3073 106.419C42.8481 108.292 47.6734 109.238 52.6462 109.238C57.619 109.238 62.4442 108.292 66.9851 106.419C71.3679 104.609 75.3187 102.017 78.7006 98.705C82.0825 95.4032 84.748 91.5562 86.6023 87.2669C88.5197 82.8336 89.4995 78.1329 89.4995 73.2676C89.4995 68.4023 88.5303 63.6913 86.6023 59.2683C84.748 54.9893 82.093 51.1424 78.7006 47.8303C75.3187 44.5285 71.3679 41.9261 66.9851 40.1158C62.4442 38.254 57.619 37.2974 52.6462 37.2974Z" fill="white"/>
<path d="M41.5621 17.7642C42.4471 18.6076 43.5638 19.2042 44.8176 19.4614C47.4199 19.1631 50.0432 19.0088 52.6666 19.0088C55.311 19.0088 57.9554 19.1631 60.5682 19.4717C61.8325 19.2248 62.9703 18.6179 63.8553 17.7745L70.9142 10.8828C72.0731 9.73079 72.8 8.14675 72.8 6.39812C72.8 2.87001 69.8711 0.010498 66.2574 0.010498H39.1705C35.5568 0.010498 32.6279 2.87001 32.6279 6.39812C32.6279 8.14675 33.3443 9.73079 34.5138 10.8828L41.5621 17.7642Z" fill="white"/>
<path d="M52.6777 94.827C50.3282 94.827 47.9893 93.9527 46.1983 92.2041C42.6162 88.7068 42.6162 83.0392 46.1983 79.5522L116.355 11.037C119.937 7.53975 125.742 7.53975 129.313 11.037C132.895 14.5343 132.895 20.2019 129.313 23.6888L59.157 92.2041C57.366 93.9527 55.0165 94.827 52.6777 94.827Z" fill="white"/>
<path d="M52.6773 94.8273C50.3279 94.8273 47.989 93.9529 46.1979 92.2043L3.30766 50.3402C-0.274429 46.8429 -0.274429 41.1753 3.30766 37.6884C6.88975 34.1911 12.6948 34.1911 16.2664 37.6884C16.2664 37.6884 50.3805 70.9842 52.6773 73.2266C54.9003 75.2015 61.0531 79.1513 66.5315 79.0485C72.0627 78.9456 76.9091 74.7798 77.046 74.7386C77.0355 74.7386 62.2857 89.1494 59.1567 92.2043C57.3656 93.9529 55.0162 94.8273 52.6773 94.8273Z" fill="white"/>
</g>
<defs>
<clipPath id="clip0">
<rect width="132" height="124.667" fill="white"/>
</clipPath>
</defs>
</svg>
